# Blender v2.79 (sub 0) OBJ File: 'exp.blend'
# www.blender.org
mtllib exp.mtl
o Circle
v -7.517544 2.736160 -0.000001
v -6.128352 5.142304 -0.000001
v -5.515520 4.628072 -0.000001
v -6.765784 2.462544 -0.000001
v 7.517544 2.736160 0.000001
v 8.000000 0.000000 0.000001
v 7.200000 0.000000 0.000001
v 6.765784 2.462544 0.000001
v 6.128352 -5.142304 0.000001
v 3.999992 -6.928208 0.000001
v 3.600000 -6.235384 0.000001
v 5.515520 -4.628072 0.000001
v -8.000000 0.000000 -0.000001
v -7.200000 0.000000 -0.000001
v 6.128352 5.142304 0.000001
v 5.515520 4.628072 0.000001
v 7.517536 -2.736168 0.000001
v 6.765784 -2.462552 0.000001
v -7.517544 -2.736160 -0.000001
v -6.765784 -2.462544 -0.000001
v 4.000000 6.928200 0.000001
v 3.600000 6.235384 0.000001
v -6.128360 -5.142296 -0.000001
v -5.515520 -4.628072 -0.000001
v 1.389184 7.878464 0.000000
v 1.250264 7.090616 0.000000
v -4.000000 -6.928200 -0.000001
v -3.600000 -6.235384 -0.000001
v -1.389184 7.878464 -0.000000
v -1.250264 7.090616 -0.000000
v -1.389192 -7.878464 -0.000000
v -1.250272 -7.090616 -0.000000
v -4.000000 6.928200 -0.000001
v -3.600000 6.235384 -0.000001
v 1.389184 -7.878464 0.000000
v 1.250264 -7.090616 0.000000
v 4.902680 -4.113840 0.000001
v 4.412416 -3.702456 0.000001
v 5.412632 -1.970040 0.000001
v 6.014032 -2.188936 0.000001
v 1.111344 -6.302768 0.000000
v 1.000208 -5.672496 0.000000
v 2.880000 -4.988312 0.000000
v 3.200000 -5.542568 0.000001
v 4.902688 4.113840 0.000001
v 4.412416 3.702456 0.000001
v 2.880000 4.988304 0.000000
v 3.200000 5.542560 0.000001
v 1.111344 6.302768 0.000000
v 1.000216 5.672496 0.000000
v -1.000216 5.672496 -0.000000
v -1.111352 6.302768 -0.000000
v -3.200000 5.542560 -0.000001
v -2.880000 4.988304 -0.000000
v -4.412416 3.702456 -0.000001
v -4.902688 4.113840 -0.000001
v -6.014032 2.188928 -0.000001
v -5.412632 1.970040 -0.000001
v -5.760000 0.000000 -0.000001
v -6.400000 0.000000 -0.000001
v -6.014032 -2.188928 -0.000001
v -5.412632 -1.970032 -0.000001
v -4.412416 -3.702456 -0.000001
v -4.902688 -4.113840 -0.000001
v -3.200000 -5.542560 -0.000001
v -2.880000 -4.988304 -0.000000
v -1.000216 -5.672496 -0.000000
v -1.111352 -6.302768 -0.000000
v 6.400000 0.000000 0.000001
v 5.760000 0.000000 0.000001
v 5.412632 1.970040 0.000001
v 6.014032 2.188928 0.000001
vn 0.0000 -0.0000 -1.0000
usemtl EXP
s 1
f 1//1 2//1 3//1 4//1
f 5//1 6//1 7//1 8//1
f 9//1 10//1 11//1 12//1
f 13//1 1//1 4//1 14//1
f 15//1 5//1 8//1 16//1
f 17//1 9//1 12//1 18//1
f 19//1 13//1 14//1 20//1
f 21//1 15//1 16//1 22//1
f 6//1 17//1 18//1 7//1
f 23//1 19//1 20//1 24//1
f 25//1 21//1 22//1 26//1
f 27//1 23//1 24//1 28//1
f 29//1 25//1 26//1 30//1
f 31//1 27//1 28//1 32//1
f 33//1 29//1 30//1 34//1
f 35//1 31//1 32//1 36//1
f 2//1 33//1 34//1 3//1
f 10//1 35//1 36//1 11//1
f 37//1 38//1 39//1 40//1
f 41//1 42//1 43//1 44//1
f 45//1 46//1 47//1 48//1
f 49//1 50//1 51//1 52//1
f 53//1 54//1 55//1 56//1
f 57//1 58//1 59//1 60//1
f 61//1 62//1 63//1 64//1
f 65//1 66//1 67//1 68//1
f 69//1 70//1 71//1 72//1
