# Blender v2.79 (sub 0) OBJ File: 'Shield.blend'
# www.blender.org
mtllib Shield.mtl
o Circle.001
v 13.184363 -6.147969 4.420000
v 22.708576 -0.991477 -0.420000
v 13.670022 4.975481 4.420000
v 16.758467 15.356308 -0.420000
v 6.147968 13.184363 4.420000
v 0.991475 22.708576 -0.420000
v -4.975483 13.670022 4.420000
v -15.356307 16.758467 -0.420000
v -13.184362 6.147971 4.420000
v -22.708580 0.991482 -0.420000
v -13.670026 -4.975478 4.420000
v -16.758474 -15.356309 -0.420000
v -6.147969 -13.184362 4.420000
v -0.991473 -22.708576 -0.420000
v 4.975487 -13.670023 4.420000
v 15.356318 -16.758465 -0.420000
v 11.865929 -5.533174 4.420000
v 20.437719 -0.892329 -0.420000
v 12.303021 4.477934 4.420000
v 15.082623 13.820678 -0.420000
v 5.533172 11.865929 4.420000
v 0.892328 20.437719 -0.420000
v -4.477934 12.303021 4.420000
v -13.820678 15.082623 -0.420000
v -11.865929 5.533175 4.420000
v -20.437721 0.892334 -0.420000
v -12.303023 -4.477931 4.420000
v -15.082625 -13.820677 -0.420000
v -5.533172 -11.865928 4.420000
v -0.892325 -20.437719 -0.420000
v 4.477939 -12.303020 4.420000
v 13.820685 -15.082619 -0.420000
v 14.502801 -6.762768 4.420000
v 24.979435 -1.090625 -0.420000
v 15.037026 5.473029 4.420000
v 18.434315 16.891937 -0.420000
v 6.762765 14.502800 4.420000
v 1.090622 24.979437 -0.420000
v -5.473031 15.037025 4.420000
v -16.891941 18.434315 -0.420000
v -14.502801 6.762768 4.420000
v -24.979437 1.090631 -0.420000
v -15.037030 -5.473026 4.420000
v -18.434320 -16.891941 -0.420000
v -6.762766 -14.502801 4.420000
v -1.090620 -24.979437 -0.420000
v 5.473035 -15.037025 4.420000
v 16.891949 -18.434311 -0.420000
vn -0.5513 -0.0604 0.8321
vn -0.4612 -0.3081 0.8321
vn 0.4612 0.3081 0.8321
vn 0.3472 0.4325 0.8321
vn 0.1082 0.5440 0.8321
vn -0.3472 -0.4326 0.8321
vn -0.1082 -0.5440 0.8321
vn 0.0604 -0.5513 0.8321
vn -0.0604 0.5513 0.8321
vn -0.3081 0.4612 0.8321
vn 0.3081 -0.4612 0.8321
vn 0.4325 -0.3472 0.8321
vn -0.4325 0.3472 0.8321
vn -0.5440 0.1082 0.8321
vn 0.5440 -0.1082 0.8321
vn 0.5513 0.0604 0.8321
vn -0.5896 -0.0646 0.8051
vn -0.4932 -0.3295 0.8051
vn 0.4932 0.3295 0.8051
vn 0.3713 0.4626 0.8051
vn 0.1157 0.5817 0.8051
vn -0.3713 -0.4626 0.8051
vn -0.1157 -0.5817 0.8051
vn 0.0646 -0.5896 0.8051
vn -0.0646 0.5896 0.8051
vn -0.3295 0.4932 0.8051
vn 0.3295 -0.4932 0.8051
vn 0.4626 -0.3713 0.8051
vn -0.4626 0.3713 0.8051
vn -0.5817 0.1157 0.8051
vn 0.5817 -0.1157 0.8051
vn 0.5896 0.0646 0.8051
usemtl BODY
s off
f 14//1 46//1 47//1 15//1
f 7//2 39//2 40//2 8//2
f 15//3 47//3 48//3 16//3
f 8//4 40//4 41//4 9//4
f 1//5 33//5 34//5 2//5
f 16//6 48//6 33//6 1//6
f 9//7 41//7 42//7 10//7
f 2//8 34//8 35//8 3//8
f 10//9 42//9 43//9 11//9
f 3//10 35//10 36//10 4//10
f 11//11 43//11 44//11 12//11
f 4//12 36//12 37//12 5//12
f 12//13 44//13 45//13 13//13
f 5//14 37//14 38//14 6//14
f 13//15 45//15 46//15 14//15
f 6//16 38//16 39//16 7//16
usemtl EDGE
f 15//17 31//17 30//17 14//17
f 8//18 24//18 23//18 7//18
f 16//19 32//19 31//19 15//19
f 9//20 25//20 24//20 8//20
f 2//21 18//21 17//21 1//21
f 1//22 17//22 32//22 16//22
f 10//23 26//23 25//23 9//23
f 3//24 19//24 18//24 2//24
f 11//25 27//25 26//25 10//25
f 4//26 20//26 19//26 3//26
f 12//27 28//27 27//27 11//27
f 5//28 21//28 20//28 4//28
f 13//29 29//29 28//29 12//29
f 6//30 22//30 21//30 5//30
f 14//31 30//31 29//31 13//31
f 7//32 23//32 22//32 6//32
o Circle
v 16.531063 -0.000000 0.000000
v 19.090885 7.907704 0.000000
v 11.689226 11.689225 0.000000
v 7.907704 19.090885 0.000000
v -0.000001 16.531061 0.000000
v -7.907706 19.090885 0.000000
v -11.689226 11.689225 0.000000
v -19.090885 7.907705 0.000000
v -16.531063 0.000002 0.000000
v -19.090891 -7.907701 0.000000
v -11.689230 -11.689224 0.000000
v -7.907707 -19.090889 0.000000
v 0.000000 -16.531061 0.000000
v 7.907708 -19.090885 0.000000
v 11.689230 -11.689222 0.000000
v 19.090893 -7.907696 0.000000
v 14.877957 -0.000000 0.000000
v 17.181797 7.116934 0.000000
v 10.520304 10.520303 0.000000
v 7.116934 17.181799 0.000000
v -0.000001 14.877956 0.000000
v -7.116936 17.181799 0.000000
v -10.520304 10.520303 0.000000
v -17.181797 7.116935 0.000000
v -14.877957 0.000002 0.000000
v -17.181803 -7.116931 0.000000
v -10.520307 -10.520302 0.000000
v -7.116937 -17.181799 0.000000
v 0.000000 -14.877956 0.000000
v 7.116938 -17.181797 0.000000
v 10.520307 -10.520301 0.000000
v 17.181805 -7.116927 0.000000
v 18.184170 -0.000000 0.000000
v 20.999973 8.698474 0.000000
v 12.858149 12.858148 0.000000
v 8.698475 20.999973 0.000000
v -0.000001 18.184168 0.000000
v -8.698477 20.999973 0.000000
v -12.858149 12.858148 0.000000
v -20.999973 8.698476 0.000000
v -18.184170 0.000002 0.000000
v -20.999981 -8.698472 0.000000
v -12.858153 -12.858147 0.000000
v -8.698478 -20.999979 0.000000
v 0.000000 -18.184170 0.000000
v 8.698479 -20.999973 0.000000
v 12.858153 -12.858146 0.000000
v 20.999983 -8.698466 0.000000
vn 0.0000 0.0000 1.0000
usemtl BODY
s off
f 62//33 94//33 95//33 63//33
f 55//33 87//33 88//33 56//33
f 63//33 95//33 96//33 64//33
f 56//33 88//33 89//33 57//33
f 49//33 81//33 82//33 50//33
f 64//33 96//33 81//33 49//33
f 57//33 89//33 90//33 58//33
f 50//33 82//33 83//33 51//33
f 58//33 90//33 91//33 59//33
f 51//33 83//33 84//33 52//33
f 59//33 91//33 92//33 60//33
f 52//33 84//33 85//33 53//33
f 60//33 92//33 93//33 61//33
f 53//33 85//33 86//33 54//33
f 61//33 93//33 94//33 62//33
f 54//33 86//33 87//33 55//33
usemtl EDGE
f 63//33 79//33 78//33 62//33
f 56//33 72//33 71//33 55//33
f 64//33 80//33 79//33 63//33
f 57//33 73//33 72//33 56//33
f 50//33 66//33 65//33 49//33
f 49//33 65//33 80//33 64//33
f 58//33 74//33 73//33 57//33
f 51//33 67//33 66//33 50//33
f 59//33 75//33 74//33 58//33
f 52//33 68//33 67//33 51//33
f 60//33 76//33 75//33 59//33
f 53//33 69//33 68//33 52//33
f 61//33 77//33 76//33 60//33
f 54//33 70//33 69//33 53//33
f 62//33 78//33 77//33 61//33
f 55//33 71//33 70//33 54//33
